<svg width="67" height="65" viewBox="0 0 67 65" fill="none" xmlns="http://www.w3.org/2000/svg">
<path d="M9.10205 13.5359C9.10205 10.5682 11.5668 8.16211 14.6069 8.16211H53.1406C56.1806 8.16211 58.6454 10.5682 58.6454 13.5359V51.1521C58.6454 54.1197 56.1806 56.5258 53.1406 56.5258H14.6069C11.5668 56.5258 9.10205 54.1197 9.10205 51.1521V13.5359Z" fill="#B388FF"/>
<path d="M13.2305 12.1934V52.4965H54.5166V12.1934H13.2305Z" fill="#170B40"/>
<path d="M29.9968 37.6702H23.7282L22.5364 41.4937H18.7354L25.1952 22.9395H28.5078L35.0021 41.4923H31.201L29.9968 37.6702ZM24.6943 34.5736H29.0321L26.8522 27.628L24.6943 34.5736ZM42.3317 41.7476C41.3299 41.7476 40.4339 41.5729 39.644 41.225C38.8527 40.877 38.1825 40.4001 37.6292 39.7969C37.076 39.1937 36.6563 38.487 36.3659 37.6756C36.0769 36.8642 35.931 35.9963 35.931 35.0693V34.5723C35.931 33.5271 36.0728 32.5692 36.3549 31.6987C36.6356 30.8281 37.0375 30.0785 37.5591 29.4497C38.0779 28.821 38.7109 28.3307 39.4527 27.9773C40.1959 27.6254 41.0285 27.448 41.9491 27.448C42.8781 27.448 43.6969 27.6119 44.4043 27.9384C45.1117 28.2648 45.7048 28.7243 46.1865 29.3154C46.6668 29.9052 47.0287 30.6172 47.2709 31.4501C47.5131 32.2831 47.6356 33.21 47.6356 34.2297V35.7975H39.4252C39.4802 36.2475 39.5945 36.6559 39.7651 37.02C39.9358 37.3854 40.1546 37.6971 40.4202 37.9564C40.6858 38.2157 40.9982 38.4172 41.3546 38.5623C41.7124 38.7074 42.1143 38.7786 42.5588 38.7786C43.1864 38.7786 43.7671 38.6536 44.2983 38.4024C44.8309 38.1525 45.2878 37.7629 45.669 37.2363L47.3617 39.2622C47.1553 39.5766 46.8966 39.8829 46.5869 40.1798C46.2773 40.4767 45.9112 40.7427 45.4901 40.9764C45.069 41.2102 44.5956 41.3969 44.0657 41.5366C43.5373 41.6777 42.9607 41.7476 42.3317 41.7476ZM41.9395 30.4318C41.5652 30.4318 41.239 30.5017 40.9555 30.6427C40.6734 30.7824 40.4312 30.9786 40.2289 31.2285C40.0266 31.4783 39.8614 31.7779 39.7348 32.1272C39.6082 32.4752 39.5174 32.8621 39.4623 33.2866H44.2529V32.9937C44.2447 32.6283 44.1951 32.2884 44.1029 31.9741C44.0121 31.6597 43.8731 31.3883 43.6859 31.1586C43.4987 30.9289 43.2607 30.7515 42.9717 30.6239C42.6785 30.4963 42.3359 30.4318 41.9395 30.4318Z" fill="#B388FF"/>
</svg>
