<svg width="68" height="67" viewBox="0 0 68 67" fill="none" xmlns="http://www.w3.org/2000/svg">
<path d="M8.9834 14.4658C8.9834 11.4257 11.4775 8.96094 14.5537 8.96094H53.5462C56.6224 8.96094 59.1165 11.4257 59.1165 14.4658V52.9994C59.1165 56.0395 56.6224 58.5043 53.5462 58.5043H14.5537C11.4775 58.5043 8.9834 56.0395 8.9834 52.9994V14.4658Z" fill="#FF5722"/>
<path d="M13.1611 13.0898V54.3759H54.9387V13.0898H13.1611ZM33.6196 43.3663L32.5585 39.3616H27.1051L26.0453 43.3663H21.8161L28.0033 23.7981H31.6616L37.8907 43.3663H33.6196ZM43.5891 43.3663H39.7275V28.8254H43.5891V43.3663ZM43.1742 26.5133C42.7968 26.8987 42.2885 27.0913 41.6437 27.0913C40.9989 27.0913 40.4906 26.8987 40.1133 26.5133C39.7359 26.128 39.5493 25.6436 39.5493 25.0614C39.5493 24.4697 39.74 23.9866 40.1202 23.6095C40.5004 23.2325 41.0101 23.0453 41.6437 23.0453C42.2773 23.0453 42.7856 23.2338 43.1672 23.6095C43.5488 23.9852 43.7382 24.4697 43.7382 25.0614C43.7382 25.6436 43.5502 26.128 43.1742 26.5133Z" fill="#1C0802"/>
<path d="M27.9771 36.0683H31.6758L29.8264 29.0938L27.9771 36.0683Z" fill="#1C0802"/>
</svg>
