<svg width="51" height="52" viewBox="0 0 51 52" fill="none" xmlns="http://www.w3.org/2000/svg">
<g filter="url(#filter0_d_872_2892)">
<ellipse cx="25.5" cy="25.6743" rx="20.5" ry="20.6743" fill="white"/>
</g>
<path d="M38.1314 42.1779C30.6904 47.8757 20.3115 47.8301 12.9214 42.0672L18.3378 39.5421C18.5958 39.4215 18.8434 39.2801 19.0781 39.1192C19.1493 39.0705 19.2205 39.0196 19.2884 38.9665C19.8779 38.5179 20.3632 37.9481 20.711 37.296C20.974 36.795 21.1487 36.2528 21.2275 35.6931C21.2819 35.3299 21.3094 34.9632 21.3099 34.596C21.3099 34.213 21.2999 33.83 21.2865 33.447C21.2787 33.1968 21.272 32.9455 21.2687 32.6953C21.2642 32.3448 21.2605 31.9939 21.2576 31.6426L21.4802 31.7533L22.059 32.0511L22.3273 32.0964L25.4307 32.6212L28.8947 33.2079L28.9993 36.7503L29.0338 37.9082L29.0505 38.4705V38.5049L29.1618 38.5513L30.3941 39.0495L38.1314 42.1779Z" fill="#F2A196"/>
<path d="M29.0492 38.504C28.6666 38.5695 28.273 38.5088 27.9283 38.3313L21.2863 32.9325C21.2785 32.6823 21.2718 32.9436 21.2685 32.6934C21.264 32.3428 21.2603 31.9919 21.2573 31.6406L21.4799 31.7513L22.0588 32.0491L22.327 32.0945L25.4304 32.6192L28.8945 33.2059L28.9991 36.7483L29.0336 37.9062L29.0503 38.4686V38.504H29.0492Z" fill="#E88870"/>
<path d="M38.1314 42.1782C30.6904 47.876 20.3115 47.8305 12.9214 42.0675L18.3378 39.5424C18.5958 39.4218 18.8434 39.2804 19.0781 39.1196C19.1493 39.0709 19.2205 39.0199 19.2884 38.9668C21.9098 40.8221 25.4874 41.9922 28.5819 40.6074C29.3188 40.2753 29.9956 39.7395 30.3963 39.0509L38.1314 42.1782Z" fill="url(#paint0_linear_872_2892)"/>
<path d="M36.1389 20.0068C36.1289 20.0721 36.1166 20.1363 36.1022 20.2005C36.0249 20.5296 35.9009 20.8461 35.7337 21.1403L35.7248 21.1558C35.6614 21.2665 35.5935 21.3772 35.52 21.4879C35.3251 21.7721 35.1124 22.0439 34.8833 22.3016L34.7464 22.4532C34.654 22.5562 34.5605 22.6569 34.467 22.7565C34.9623 22.6458 35.4421 23.1052 35.53 23.6012C35.6179 24.0971 35.4187 24.5975 35.1727 25.0403C34.7419 25.824 34.1208 26.3454 33.5743 27.0262C33.1646 27.5332 32.9376 28.1332 32.4912 28.6181L32.4578 28.6546C31.279 29.8856 29.4179 30.1734 27.8684 30.6992C27.3118 30.8896 21.2765 32.5944 21.2765 32.9664C21.2765 32.8856 20.6854 32.3022 19.9407 31.5926C17.2692 29.0697 16.391 25.172 17.9805 21.8289C19.6892 18.2311 23.5695 15.664 27.2651 14.4308C28.4205 14.0456 29.7318 13.7865 30.8271 14.3201C31.9224 14.8537 32.4678 16.5086 31.5595 17.3168C32.1308 16.8869 32.8414 16.6816 33.5553 16.74C34.2148 16.7811 34.8367 17.0593 35.3052 17.5227C35.6763 17.8934 35.943 18.3545 36.0788 18.8599C36.1794 19.2338 36.1999 19.6245 36.1389 20.0068V20.0068Z" fill="#845161"/>
<path d="M36.1388 20.0071C36.1288 20.0724 36.1165 20.1366 36.102 20.2008C36.092 20.2196 36.082 20.2396 36.072 20.2617C35.9462 20.5473 35.8883 20.8551 35.738 21.1407L35.7291 21.1562C35.6657 21.2669 35.5978 21.3776 35.5243 21.4883C35.3313 21.7738 35.1186 22.0457 34.8876 22.3019L34.7463 22.4536C34.6539 22.5565 34.5604 22.6573 34.4669 22.7569C34.9622 22.6462 35.442 23.1056 35.5299 23.6015C35.6178 24.0975 35.4186 24.5978 35.1726 25.0406C34.7418 25.8244 34.1207 26.3458 33.5741 27.0266C33.1645 27.5336 32.9374 28.1336 32.4911 28.6184C31.9728 28.0056 31.6428 27.2574 31.5405 26.4631C31.3579 24.9952 31.4692 23.3956 31.4191 21.91C31.388 20.9757 31.0852 20.803 31.6484 20.047C32.1014 19.4912 32.6252 18.9967 33.2068 18.5758C33.661 18.278 34.2453 18.2315 34.7874 18.3079C35.2598 18.3721 35.7055 18.5635 36.0764 18.8614C36.1777 19.2347 36.1989 19.6251 36.1388 20.0071Z" fill="#69303A"/>
<ellipse cx="20.1623" cy="28.5421" rx="1.89231" ry="1.88189" fill="#F2A196"/>
<ellipse cx="20.762" cy="28.5423" rx="1.69417" ry="1.68485" fill="#E88870"/>
<path d="M20.7876 26.7697L21.2774 33.0796L28.673 37.377C29.7329 37.7701 30.9199 37.3 31.4179 36.2899C32.4821 34.1224 34.1896 30.6996 33.9647 29.4265C33.6308 27.5446 32.7403 26.8804 32.7403 26.8804C32.8642 26.1424 32.9874 25.4066 33.1099 24.6731C33.2501 23.8417 33.4293 22.9738 33.2212 22.1381C32.9841 21.1794 32.2561 20.7709 31.6572 20.0547C30.0811 22.0738 27.4897 23.2152 25.2267 24.372C24.0602 24.9742 20.7876 26.7697 20.7876 26.7697Z" fill="#F2A196"/>
<path d="M26.2553 26.5273C26.9343 26.5273 26.9343 27.5657 26.2553 27.5712H26.2241C25.5451 27.5712 25.5451 26.5329 26.2241 26.5273H26.2553Z" fill="#00214E"/>
<path d="M31.8343 26.373C32.4655 26.3786 32.4655 27.3361 31.8343 27.3417H31.8065C31.1765 27.3417 31.1765 26.3786 31.8065 26.373H31.8343Z" fill="#00214E"/>
<path d="M29.084 26.2266C29.0751 26.2653 30.5712 30.2261 30.5712 30.2261L28.5742 30.3225" stroke="#00214E"/>
<path d="M24.3555 25.4616C25.386 25.25 26.4459 25.2204 27.4867 25.3741" stroke="#00214E"/>
<path d="M30.9282 25.4729C31.5645 25.3261 32.2201 25.2809 32.8706 25.339" stroke="#00214E"/>
<path d="M26.528 31.4303C26.5586 31.3817 26.6083 31.348 26.665 31.3375C26.7217 31.3269 26.7802 31.3406 26.8264 31.375C27.0579 31.5366 27.4809 31.8798 28.082 31.9982C28.9012 32.161 29.6114 31.8344 29.7817 32.0447C29.8774 32.1632 29.7606 32.3071 29.5368 32.4875C29.0632 32.8395 28.4669 32.9867 27.8827 32.896C27.0946 32.7488 26.5024 31.841 26.5024 31.5189C26.5033 31.4877 26.5121 31.4572 26.528 31.4303V31.4303Z" fill="white"/>
<defs>
<filter id="filter0_d_872_2892" x="0" y="0" width="51" height="51.3496" filterUnits="userSpaceOnUse" color-interpolation-filters="sRGB">
<feFlood flood-opacity="0" result="BackgroundImageFix"/>
<feColorMatrix in="SourceAlpha" type="matrix" values="0 0 0 0 0 0 0 0 0 0 0 0 0 0 0 0 0 0 127 0" result="hardAlpha"/>
<feMorphology radius="1" operator="dilate" in="SourceAlpha" result="effect1_dropShadow_872_2892"/>
<feOffset/>
<feGaussianBlur stdDeviation="2"/>
<feComposite in2="hardAlpha" operator="out"/>
<feColorMatrix type="matrix" values="0 0 0 0 0 0 0 0 0 0 0 0 0 0 0 0 0 0 0.1 0"/>
<feBlend mode="normal" in2="BackgroundImageFix" result="effect1_dropShadow_872_2892"/>
<feBlend mode="normal" in="SourceGraphic" in2="effect1_dropShadow_872_2892" result="shape"/>
</filter>
<linearGradient id="paint0_linear_872_2892" x1="12.9214" y1="46.42" x2="38.1314" y2="46.42" gradientUnits="userSpaceOnUse">
<stop stop-color="#16243F"/>
<stop offset="1" stop-color="#6878B1"/>
</linearGradient>
</defs>
</svg>
