<svg width="52" height="50" viewBox="0 0 52 50" fill="none" xmlns="http://www.w3.org/2000/svg">
<g filter="url(#filter0_d_872_2898)">
<ellipse cx="26.0855" cy="24.9531" rx="20.2406" ry="19.9531" fill="white"/>
</g>
<path d="M28.86 15.2768C27.4862 14.8254 26.0151 14.4552 24.5623 14.6166C22.2576 14.8774 20.0637 15.734 18.2028 17.0995C14.5519 19.7832 13.6132 24.6361 12.0883 28.6459C11.5159 30.1503 10.9434 31.6693 10.695 33.2584C9.97148 37.9724 13.1644 39.672 17.303 40.8299C22.5177 42.2892 28.2246 41.8536 33.3088 40.093C37.6397 38.5931 39.3764 34.9772 38.4605 30.6581C38.0026 28.5274 37.1394 26.505 36.2693 24.5018C34.6139 20.7008 33.0489 16.6706 28.86 15.2768Z" fill="#00214E"/>
<path d="M39.0821 40.7912C31.4289 46.5993 20.755 46.5528 13.1541 40.6783L18.7248 38.104C18.8953 38.0246 19.0615 37.9364 19.2228 37.84L19.351 37.761C19.3968 37.7327 19.4415 37.7034 19.4861 37.6729C20.1896 37.1934 20.7657 36.5539 21.1656 35.8085C21.6235 34.9565 21.7746 34.0164 21.7815 33.0571C21.7815 32.4104 21.746 31.766 21.7391 31.1182C21.7345 30.7608 21.7307 30.4031 21.7277 30.0449L21.9566 30.1578L22.552 30.4614L26.0196 31.0426L29.5824 31.6407L29.69 35.2521L29.7403 37.05L31.0535 37.577L32.0838 37.9878L39.0821 40.7912Z" fill="#E18477"/>
<path d="M29.6843 34.8783C29.373 35.0679 29.0787 35.1571 28.8211 35.13C27.1279 34.9505 23.8251 33.6425 21.7461 31.2217C21.7461 31.1029 21.7438 30.9844 21.7392 30.8662C21.7347 30.5081 21.7308 30.1503 21.7278 29.793L21.9567 29.9058L22.5521 30.2094L26.0197 30.7906L29.5825 31.3888L29.6843 34.8783Z" fill="#A76962"/>
<path d="M39.0821 40.7906C31.4289 46.5987 20.755 46.5523 13.1541 40.6778L18.7248 38.1035C18.8965 38.0238 19.0625 37.9361 19.2228 37.8406C21.9337 39.8054 25.7071 41.0841 28.9607 39.6406C29.8834 39.2321 30.7157 38.5121 31.0546 37.5742L32.0849 37.985L39.0821 40.7906Z" fill="#FF2609"/>
<ellipse cx="18.8268" cy="26.4381" rx="1.94621" ry="1.91857" fill="#E18477"/>
<ellipse cx="19.6281" cy="26.2115" rx="1.94621" ry="1.91857" fill="#A76962"/>
<path d="M28.7867 33.6752C26.4238 34.1108 20.5439 31.7815 19.1999 27.1904C18.9175 26.234 18.7674 25.2443 18.7534 24.2482C18.7534 24.053 18.7534 23.8589 18.7626 23.667C18.9091 20.4687 20.5691 17.7985 23.1919 17.048C23.343 17.0051 23.4953 16.969 23.6499 16.9351C24.5672 16.7666 25.5129 16.8319 26.3974 17.1247C27.5381 17.5092 28.5705 18.1538 29.4106 19.006C29.7651 19.3566 30.0912 19.7339 30.386 20.1346C31.1367 21.161 31.7 22.3087 32.0506 23.526C33.4038 28.1238 30.5509 33.3513 28.7867 33.6752Z" fill="#E18477"/>
<path d="M28.2888 23.7207C28.3207 24.1594 28.3974 24.5939 28.5177 25.0174C28.6322 25.391 28.8062 25.6223 29.0352 25.9451C29.1147 26.051 29.1833 26.1644 29.2401 26.2837C29.5435 26.9541 29.1417 27.6978 28.3769 27.6978H27.9087" stroke="#00214E"/>
<path d="M26.2303 26.832C26.0594 26.9183 25.9778 27.1144 26.0381 27.2941C26.0983 27.4738 26.2825 27.5833 26.4718 27.5521" stroke="#00214E"/>
<path d="M28.8303 22.3345C29.6392 21.9284 30.5745 21.8413 31.4463 22.0907" stroke="#00214E"/>
<path d="M22.8232 22.6607C23.9387 22.1008 25.2491 22.0594 26.3985 22.5478" stroke="#00214E"/>
<path d="M27.9326 16.4762C26.797 16.2583 25.4346 16.2967 24.3207 16.3103C23.7128 16.317 23.0969 16.3554 22.5176 16.536C20.9148 17.045 19.8719 18.5674 19.2216 20.1023C19.0556 20.4939 17.3395 24.3908 17.3773 24.3987C18.4764 24.7508 19.6532 24.261 20.6847 23.7498C23.746 22.2296 26.995 19.7863 28.3116 16.5563C28.1891 16.5292 28.062 16.501 27.9326 16.4762Z" fill="#00214E"/>
<path d="M25.0466 28.6485C25.0782 28.5992 25.1293 28.565 25.1875 28.5543C25.2457 28.5436 25.3058 28.5573 25.3534 28.5921C25.5915 28.7569 26.0266 29.1067 26.6448 29.2286C27.4874 29.3934 28.2189 29.0616 28.3929 29.2749C28.4914 29.3956 28.3712 29.5435 28.1411 29.7319C27.6542 30.0913 27.0407 30.2415 26.4399 30.1484C25.6293 29.9983 25.0203 29.0729 25.0203 28.7456C25.0202 28.7115 25.0293 28.678 25.0466 28.6485Z" fill="white"/>
<path d="M24.4067 23.9473C25.1051 23.9529 25.1051 25.0047 24.4067 25.0104H24.3758C23.6775 25.0047 23.6775 23.9529 24.3758 23.9473H24.4067Z" fill="#00214E"/>
<path d="M30.1605 23.8711C30.8096 23.8711 30.8096 24.853 30.1605 24.8575H30.1319C29.4827 24.8575 29.4827 23.8756 30.1319 23.8711H30.1605Z" fill="#00214E"/>
<defs>
<filter id="filter0_d_872_2898" x="0.844971" y="0" width="50.4812" height="49.9062" filterUnits="userSpaceOnUse" color-interpolation-filters="sRGB">
<feFlood flood-opacity="0" result="BackgroundImageFix"/>
<feColorMatrix in="SourceAlpha" type="matrix" values="0 0 0 0 0 0 0 0 0 0 0 0 0 0 0 0 0 0 127 0" result="hardAlpha"/>
<feMorphology radius="1" operator="dilate" in="SourceAlpha" result="effect1_dropShadow_872_2898"/>
<feOffset/>
<feGaussianBlur stdDeviation="2"/>
<feComposite in2="hardAlpha" operator="out"/>
<feColorMatrix type="matrix" values="0 0 0 0 0 0 0 0 0 0 0 0 0 0 0 0 0 0 0.1 0"/>
<feBlend mode="normal" in2="BackgroundImageFix" result="effect1_dropShadow_872_2898"/>
<feBlend mode="normal" in="SourceGraphic" in2="effect1_dropShadow_872_2898" result="shape"/>
</filter>
</defs>
</svg>
