<svg width="52" height="52" viewBox="0 0 52 52" fill="none" xmlns="http://www.w3.org/2000/svg">
<g filter="url(#filter0_d_872_2895)">
<ellipse cx="25.8193" cy="25.6748" rx="20.5" ry="20.6748" fill="white"/>
</g>
<path d="M38.8019 41.8908C31.1542 47.8296 20.487 47.7821 12.8916 41.7755L18.4585 39.1436C18.7236 39.018 18.9781 38.8705 19.2193 38.7029C19.2925 38.6521 19.3657 38.5991 19.4355 38.5437C20.0414 38.0761 20.5401 37.4823 20.8976 36.8026C21.1679 36.2804 21.3474 35.7153 21.4284 35.1319C21.4843 34.7534 21.5126 34.3712 21.5131 33.9885C21.5131 33.5893 21.5028 33.1901 21.4891 32.7908C21.4811 32.5301 21.4742 32.2682 21.4708 32.0074C21.4662 31.642 21.4624 31.2763 21.4593 30.9102L21.6881 31.0255L22.283 31.3359L22.5588 31.3832L25.7483 31.9301L29.3086 32.5416L29.4161 36.2338L29.4516 37.4406L29.4688 38.0268V38.0625L29.5832 38.111L30.8496 38.6302L38.8019 41.8908Z" fill="#F2A196"/>
<path d="M29.4678 38.0633C29.0445 38.113 28.3237 37.948 27.9256 37.7299C26.4383 36.9015 25.6959 36.23 24.9076 35.6438C23.9695 34.9446 21.4984 32.7016 21.4984 32.7016C21.4904 32.4409 21.4743 32.2678 21.4709 32.0094C21.4663 31.644 21.4625 31.2782 21.4595 30.9121L21.6883 31.0275L22.2832 31.3379L22.5589 31.3852L25.7485 31.9321L29.3087 32.5436L29.4163 36.2357L29.4518 37.4426L29.4689 38.0287V38.0633H29.4678Z" fill="#E88870"/>
<path d="M38.8019 41.8921C31.1542 47.8308 20.487 47.7833 12.8916 41.7767L18.4585 39.1449C18.7236 39.0192 18.9781 38.8718 19.2193 38.7041C19.2925 38.6534 19.3657 38.6003 19.4355 38.5449C22.1297 40.4787 25.8067 41.6982 28.9871 40.2548C29.7445 39.9087 30.4401 39.3503 30.8519 38.6326L38.8019 41.8921Z" fill="#FF2609"/>
<path d="M36.7542 18.7834C36.7439 18.8515 36.7313 18.9184 36.7164 18.9853C36.637 19.3283 36.5095 19.6582 36.3377 19.9649L36.3286 19.981C36.2634 20.0964 36.1936 20.2118 36.1181 20.3272C35.9177 20.6234 35.6992 20.9066 35.4637 21.1752L35.323 21.3333C35.228 21.4406 35.1319 21.5456 35.0358 21.6494C35.5449 21.534 36.038 22.0129 36.1284 22.5298C36.2187 23.0467 36.014 23.5682 35.7611 24.0297C35.3184 24.8466 34.68 25.39 34.1183 26.0996C33.6973 26.6281 33.4639 27.2534 33.0051 27.7588L32.9708 27.7968C31.7593 29.0799 29.8464 29.3799 28.2539 29.9279C27.6819 30.1264 21.4789 31.9032 21.4789 32.2909C21.4789 32.2067 20.8714 31.5986 20.1061 30.859C17.3604 28.2295 16.4577 24.167 18.0914 20.6825C19.8475 16.9327 23.8356 14.2571 27.6339 12.9717C28.8214 12.5702 30.169 12.3002 31.2948 12.8563C32.4205 13.4125 32.9811 15.1374 32.0476 15.9797C32.6347 15.5316 33.365 15.3176 34.0988 15.3785C34.7766 15.4214 35.4158 15.7113 35.8973 16.1943C36.2787 16.5807 36.5528 17.0613 36.6924 17.5881C36.7958 17.9777 36.8169 18.385 36.7542 18.7834V18.7834Z" fill="#845161"/>
<path d="M36.7539 18.7834C36.7436 18.8515 36.731 18.9184 36.7161 18.9854C36.7058 19.005 36.6955 19.0257 36.6852 19.0488C36.5559 19.3465 36.4964 19.6672 36.342 19.9649L36.3328 19.9811C36.2676 20.0965 36.1979 20.2118 36.1223 20.3272C35.924 20.6248 35.7053 20.9082 35.468 21.1753L35.3227 21.3333C35.2277 21.4406 35.1316 21.5456 35.0355 21.6495C35.5446 21.5341 36.0377 22.0129 36.1281 22.5298C36.2184 23.0467 36.0137 23.5682 35.7608 24.0297C35.3181 24.8466 34.6797 25.3901 34.118 26.0997C33.697 26.6281 33.4636 27.2535 33.0048 27.7588C32.4722 27.12 32.133 26.3402 32.0278 25.5124C31.8402 23.9824 31.9546 22.3152 31.9031 20.7668C31.8711 19.793 31.5599 19.613 32.1388 18.825C32.6043 18.2458 33.1427 17.7303 33.7404 17.2916C34.2072 16.9812 34.8078 16.9327 35.365 17.0124C35.8505 17.0793 36.3086 17.2788 36.6898 17.5893C36.7938 17.9784 36.8157 18.3852 36.7539 18.7834Z" fill="#69303A"/>
<ellipse cx="20.3335" cy="27.6782" rx="1.94487" ry="1.96145" fill="#F2A196"/>
<ellipse cx="20.9502" cy="27.6799" rx="1.74123" ry="1.75608" fill="#E88870"/>
<path d="M20.9766 25.8322L21.4777 32.1781L29.0787 36.8948C30.1705 37.305 31.3926 36.8115 31.9022 35.7548C32.4812 34.5626 32.9833 33.334 33.4054 32.0765C33.7075 31.172 34.0026 30.2432 34.0312 29.2809C34.0598 28.3186 33.7887 27.3194 33.4592 26.431C33.4249 26.3376 33.2418 26.0503 33.2579 25.9522C33.3852 25.183 33.5118 24.4161 33.6377 23.6515C33.7818 22.785 33.966 21.8805 33.7521 21.0093C33.5084 20.0101 32.7602 19.5844 32.1447 18.8379C30.5247 20.9424 27.8614 22.132 25.5356 23.3377C24.34 23.9607 20.9766 25.8322 20.9766 25.8322Z" fill="#F2A196"/>
<path d="M33.6146 31.4291C33.1216 33.3813 32.5759 35.3924 32.1697 36.1146C31.8654 36.6535 31.441 36.7573 30.7694 36.9223C29.0848 37.3112 27.3157 36.934 25.9313 35.8908L21.4592 32.2587C21.3906 31.5791 21.3448 31.4752 21.3116 30.7922C21.2956 30.483 21.1972 30.1737 21.2704 29.8691C21.2905 30.0292 21.3584 30.1792 21.4649 30.2995C22.0061 31.0402 22.6376 31.8767 23.5368 32.1813C24.4749 32.4986 25.5423 32.5483 26.4484 32.1006C27.2366 31.7106 28.0088 31.2018 28.8314 30.881C29.3785 30.6532 29.9689 30.5504 30.5601 30.5799C31.3998 30.6376 31.759 31.0195 32.3734 31.5237C32.5747 31.6898 32.8001 31.8629 33.0598 31.8698C33.3527 31.8641 33.3675 31.6194 33.6146 31.4291Z" fill="#845161"/>
<path d="M26.596 25.5801C27.2938 25.5801 27.2938 26.6623 26.596 26.6681H26.5639C25.8661 26.6681 25.8661 25.5858 26.5639 25.5801H26.596Z" fill="#00214E"/>
<path d="M32.3302 25.418C32.9788 25.4237 32.9788 26.4218 32.3302 26.4275H32.3016C31.654 26.4275 31.654 25.4237 32.3016 25.418H32.3302Z" fill="#00214E"/>
<path d="M29.503 25.2656C29.4938 25.306 31.0314 29.4343 31.0314 29.4343L28.979 29.5347" stroke="#00214E"/>
<path d="M24.6431 24.4674C25.7022 24.2469 26.7915 24.216 27.8613 24.3763" stroke="#00214E"/>
<path d="M31.3989 24.4816C32.0528 24.3286 32.7267 24.2815 33.3953 24.3419" stroke="#00214E"/>
<path d="M28.8612 31.7173C29.5041 31.9416 30.2011 31.9545 30.8518 31.7542C30.9216 31.7323 30.8918 31.6204 30.822 31.6388C30.1912 31.8338 29.5153 31.8212 28.892 31.603C28.8223 31.5788 28.7925 31.6896 28.8612 31.7184V31.7173Z" fill="#F2A196"/>
<defs>
<filter id="filter0_d_872_2895" x="0.319336" y="0" width="51" height="51.3496" filterUnits="userSpaceOnUse" color-interpolation-filters="sRGB">
<feFlood flood-opacity="0" result="BackgroundImageFix"/>
<feColorMatrix in="SourceAlpha" type="matrix" values="0 0 0 0 0 0 0 0 0 0 0 0 0 0 0 0 0 0 127 0" result="hardAlpha"/>
<feMorphology radius="1" operator="dilate" in="SourceAlpha" result="effect1_dropShadow_872_2895"/>
<feOffset/>
<feGaussianBlur stdDeviation="2"/>
<feComposite in2="hardAlpha" operator="out"/>
<feColorMatrix type="matrix" values="0 0 0 0 0 0 0 0 0 0 0 0 0 0 0 0 0 0 0.1 0"/>
<feBlend mode="normal" in2="BackgroundImageFix" result="effect1_dropShadow_872_2895"/>
<feBlend mode="normal" in="SourceGraphic" in2="effect1_dropShadow_872_2895" result="shape"/>
</filter>
</defs>
</svg>
