<svg width="52" height="51" viewBox="0 0 52 51" fill="none" xmlns="http://www.w3.org/2000/svg">
<g filter="url(#filter0_d_872_2886)">
<ellipse cx="25.5566" cy="25.0588" rx="20.5" ry="20.0588" fill="#D9D9D9"/>
</g>
<path fill-rule="evenodd" clip-rule="evenodd" d="M30.1242 15.5279C33.6228 17.7614 34.3136 21.9178 34.3615 25.7076C34.3817 27.3099 34.3662 28.9051 34.3508 30.4983C34.3208 33.5977 34.2909 36.6892 34.5237 39.8085C34.5073 39.5859 30.8185 39.0503 30.3972 39.0321C29.5115 38.9946 28.5954 39.076 27.6897 39.1565C27.2433 39.1961 26.7994 39.2356 26.363 39.2604C25.6017 39.307 24.8234 39.3257 24.0409 39.3445C22.5406 39.3805 21.0247 39.4168 19.5828 39.651C19.3032 39.6965 19.0273 39.7426 18.7536 39.7883C17.3049 40.0303 15.9194 40.2617 14.3862 40.3452C14.265 40.3658 14.1403 40.3418 14.0361 40.2778C13.9194 40.1842 13.9194 40.0152 13.9194 39.8679C13.9194 38.103 14.0002 36.3388 14.081 34.576C14.195 32.0859 14.3089 29.5986 14.1948 27.1155C14.0933 25.0031 14.4513 22.8936 15.2451 20.9266C15.9233 19.2304 16.9873 17.7075 18.3563 16.4733C18.728 16.1447 19.1269 15.8468 19.549 15.5827C22.6846 13.6095 26.9651 13.5113 30.1242 15.5279ZM19.836 24.0884L21.4803 25.2303L26.7784 20.0474L26.1121 19.6352C25.477 20.6883 24.6054 21.5864 23.5634 22.2615C22.4125 23.035 21.1583 23.6498 19.836 24.0884Z" fill="#00214E"/>
<path d="M38.7995 40.6324C30.9984 46.5098 20.1173 46.4628 12.3696 40.5183L18.0482 37.9137C18.222 37.8332 18.3914 37.7441 18.5558 37.6465L18.6865 37.5665C18.7332 37.538 18.7787 37.5083 18.8242 37.4775C19.5406 36.9939 20.1278 36.3489 20.5362 35.5968C21.003 34.7347 21.157 33.7824 21.164 32.8118C21.164 32.2785 21.1418 31.7453 21.1278 31.2132C21.1278 31.0937 21.1255 30.9738 21.1208 30.8535C21.1162 30.4919 21.1123 30.1299 21.1092 29.7676H21.1162L21.3402 29.8818L21.9471 30.1889L25.4819 30.777L29.1135 31.3822L29.1999 34.2368L29.2197 34.9105V35.0327L29.2745 36.8449L30.6131 37.3781L31.6634 37.7938L38.7995 40.6324Z" fill="#F2A196"/>
<path d="M29.1997 34.2357C28.9473 34.4054 28.6457 34.4907 28.3397 34.4789C26.6149 34.2974 23.247 32.9739 21.13 30.5246C21.13 30.4051 21.1277 30.2852 21.123 30.1649C21.123 30.0325 21.123 29.9 21.123 29.7676L21.3471 29.8818L21.9539 30.1889L25.4887 30.777L29.1204 31.3822L29.1997 34.2357Z" fill="#E88870"/>
<ellipse cx="17.8418" cy="26.1091" rx="1.98387" ry="1.94117" fill="#F2A196"/>
<ellipse cx="18.542" cy="25.8806" rx="1.98387" ry="1.94117" fill="#E88870"/>
<path d="M31.6752 23.1709C33.0453 27.816 30.1336 33.4329 28.3447 33.4329C25.894 33.4329 19.9424 31.5168 18.5735 26.8717C17.2046 22.2266 19.0298 17.6317 22.6475 16.6109C26.2651 15.5901 30.304 18.5247 31.6752 23.1709Z" fill="#F2A196"/>
<path d="M24.8994 28.8145C25.46 29.4273 26.2287 29.8204 27.063 29.9209" stroke="#00214E"/>
<path d="M27.306 23.6582C27.306 23.681 27.8649 24.6356 28.1602 25.6667C28.2967 26.2183 28.3598 26.7848 28.3481 27.3521H26.7715" stroke="#00214E"/>
<path d="M28.7539 22.6868C29.5784 22.2758 30.5319 22.1876 31.4205 22.4401" stroke="#00214E"/>
<path d="M21.8525 23.1427C22.9895 22.576 24.3253 22.5341 25.497 23.0285" stroke="#00214E"/>
<path d="M23.8996 24.1543C24.6114 24.16 24.6114 25.2242 23.8996 25.2299H23.8669C23.155 25.2299 23.155 24.16 23.8669 24.1543H23.8996Z" fill="#00214E"/>
<path d="M29.7482 23.9941C30.4099 23.9941 30.4099 24.9876 29.7482 24.9921H29.719C29.0585 24.9921 29.0585 23.9987 29.719 23.9941H29.7482Z" fill="#00214E"/>
<path d="M27.4237 15.39C27.3694 15.9277 27.2809 16.4616 27.1588 16.9886C26.95 17.9185 26.5957 18.8113 26.1085 19.6354C25.4734 20.6886 24.6019 21.5867 23.5598 22.2617C22.409 23.0353 21.1547 23.65 19.8325 24.0887C18.8009 24.4404 17.7319 24.4712 16.6279 24.6859C16.6641 23.8147 16.6279 22.9651 16.7376 21.9534C16.8193 21.2272 16.9827 20.5341 17.3118 19.9757C18.2047 18.4983 19.5072 17.2986 21.0683 16.5158L21.0823 16.509C22.8083 15.64 25.4818 14.7825 27.4237 15.39Z" fill="#00214E"/>
<ellipse cx="18.1335" cy="26.1042" rx="0.701357" ry="0.686263" fill="#F2D4CF"/>
<path d="M16.803 27.7569C16.7598 27.75 16.7155 27.742 16.6711 27.7318C15.8288 27.5423 15.2663 26.7638 15.3647 25.9236C15.463 25.0833 16.1907 24.4494 17.0551 24.4512V24.4512C17.1048 24.451 17.1481 24.4843 17.1598 24.5316C17.1714 24.5789 17.1484 24.6278 17.1041 24.6499C16.5888 24.9214 16.2528 25.4334 16.2148 26.0049C16.1768 26.5763 16.4423 27.1266 16.9174 27.4611C16.9795 27.5041 17.0042 27.5827 16.9772 27.6524C16.9503 27.722 16.8786 27.765 16.803 27.7569V27.7569Z" fill="#F2D4CF"/>
<path d="M16.7656 24.6321C17.0074 24.5418 17.2751 24.5447 17.5148 24.64C17.7693 24.7507 17.9636 24.962 18.0493 25.2213C18.1155 25.4043 18.1441 25.5983 18.1333 25.7922" stroke="#F2D4CF" stroke-width="2"/>
<path d="M38.7995 40.6324C30.9984 46.5098 20.1173 46.4627 12.3696 40.5182L18.0482 37.9136C18.3186 37.7892 18.5782 37.6434 18.8242 37.4774C18.8989 37.4272 18.9736 37.3747 19.0448 37.3199C19.6628 36.8572 20.1715 36.2694 20.5362 35.5968C20.8119 35.08 20.995 34.5207 21.0777 33.9434C21.1601 34.0215 21.2465 34.0954 21.3367 34.1649C22.0522 34.683 22.8288 35.1151 23.6497 35.4518C24.0482 35.6144 24.4557 35.7551 24.8704 35.8731C26.1195 36.2295 27.4237 36.3645 28.7214 36.2716C28.9011 36.2579 29.082 36.2408 29.2617 36.2282L29.2792 36.8083V36.846L30.6913 37.4078L38.7995 40.6324Z" fill="#F2D4CF"/>
<path d="M26.1062 19.6402C25.4711 20.6934 24.5996 21.5915 23.5575 22.2665C22.4067 23.0401 21.1525 23.6548 19.8302 24.0935L16.7354 21.9582L15.2451 20.9305C15.9233 19.2343 16.9873 17.7114 18.3563 16.4773C18.7278 16.147 19.1267 15.8476 19.549 15.582L21.066 16.5206L26.1062 19.6402Z" fill="url(#paint0_linear_872_2886)"/>
<defs>
<filter id="filter0_d_872_2886" x="0.0566406" y="0" width="51" height="50.1172" filterUnits="userSpaceOnUse" color-interpolation-filters="sRGB">
<feFlood flood-opacity="0" result="BackgroundImageFix"/>
<feColorMatrix in="SourceAlpha" type="matrix" values="0 0 0 0 0 0 0 0 0 0 0 0 0 0 0 0 0 0 127 0" result="hardAlpha"/>
<feMorphology radius="1" operator="dilate" in="SourceAlpha" result="effect1_dropShadow_872_2886"/>
<feOffset/>
<feGaussianBlur stdDeviation="2"/>
<feComposite in2="hardAlpha" operator="out"/>
<feColorMatrix type="matrix" values="0 0 0 0 0 0 0 0 0 0 0 0 0 0 0 0 0 0 0.1 0"/>
<feBlend mode="normal" in2="BackgroundImageFix" result="effect1_dropShadow_872_2886"/>
<feBlend mode="normal" in="SourceGraphic" in2="effect1_dropShadow_872_2886" result="shape"/>
</filter>
<linearGradient id="paint0_linear_872_2886" x1="22.5296" y1="27.2975" x2="27.0585" y2="17.6936" gradientUnits="userSpaceOnUse">
<stop offset="0.29" stop-color="#00214E"/>
<stop offset="0.51" stop-color="#6878B1"/>
<stop offset="0.79" stop-color="#00214E"/>
</linearGradient>
</defs>
</svg>
