<svg width="51" height="52" viewBox="0 0 51 52" fill="none" xmlns="http://www.w3.org/2000/svg">
<g filter="url(#filter0_d_872_2889)">
<ellipse cx="25.5" cy="25.6746" rx="20.5" ry="20.6746" fill="white"/>
</g>
<ellipse cx="23.1205" cy="16.069" rx="3.46136" ry="3.49084" fill="url(#paint0_linear_872_2889)"/>
<path d="M26.1113 35.0128C24.3034 34.9812 22.5002 34.8145 20.7167 34.5142C17.1639 33.9156 13.6856 32.7717 10.5301 31.0086C10.3428 30.9028 10.1554 30.7958 9.96582 30.6865C12.7636 28.0083 14.8402 24.7679 16.5951 21.3305C17.8591 18.8504 18.5137 17.2148 21.2437 16.1711C25.9906 14.358 32.4032 16.121 33.7529 21.507C34.3229 23.7834 34.3443 26.1633 34.0204 28.4795C33.7078 30.7195 32.8851 35.0333 32.8851 35.0333C32.8851 35.0333 26.9973 35.0287 26.1113 35.0128Z" fill="url(#paint1_linear_872_2889)"/>
<path d="M38.484 42.2979C30.9396 48.1563 20.4166 48.1094 12.9238 42.184L18.4155 39.5878C18.5836 39.5076 18.7475 39.4187 18.9064 39.3215L19.0328 39.2418C19.078 39.2133 19.122 39.1838 19.166 39.153C19.859 38.6706 20.4268 38.0273 20.8216 37.2773C21.2731 36.4179 21.4221 35.4687 21.4288 34.5012C21.4288 33.9697 21.4074 33.4381 21.3938 32.9078C21.3938 32.7879 21.3916 32.6684 21.3871 32.5492C21.3826 32.188 21.3788 31.8272 21.3758 31.4668H21.3837L21.5992 31.5806L22.1861 31.8868L25.6046 32.473L29.1167 33.0762L29.1969 35.8079L29.2194 36.5909V36.7127L29.2725 38.519L30.567 39.0506L31.5827 39.4649L38.484 42.2979Z" fill="#F2A196"/>
<path d="M29.197 35.8098C28.9537 35.9778 28.6632 36.0621 28.3686 36.05C26.6994 35.869 23.4435 34.5498 21.394 32.1084C21.394 31.9885 21.3917 31.869 21.3872 31.7499V31.4688L21.6028 31.5826L22.1896 31.8887L25.6081 32.4749L29.1203 33.0782L29.197 35.8098Z" fill="#E88870"/>
<ellipse cx="18.5534" cy="27.8216" rx="1.91859" ry="1.93493" fill="#F2A196"/>
<ellipse cx="19.2301" cy="27.5951" rx="1.91859" ry="1.93493" fill="#E88870"/>
<path d="M31.5926 24.8926C32.9187 29.5228 30.1029 35.1215 28.3716 35.1215C26.0016 35.1215 20.2458 33.2116 18.922 28.5815C17.5982 23.9513 19.3543 19.3712 22.8529 18.3525C26.3515 17.3338 30.2677 20.2658 31.5926 24.8926Z" fill="#F2A196"/>
<path d="M24.4649 25.8535C25.1534 25.8592 25.1534 26.92 24.4649 26.9257H24.4333C23.7449 26.92 23.7449 25.8592 24.4333 25.8535H24.4638H24.4649Z" fill="#00214E"/>
<path d="M30.1372 25.416C30.7771 25.4217 30.7771 26.4062 30.1372 26.4119H30.109C29.4702 26.4119 29.4702 25.4217 30.109 25.416H30.1372Z" fill="#00214E"/>
<ellipse cx="24.4636" cy="26.3989" rx="2.14431" ry="2.16257" stroke="white"/>
<ellipse cx="30.4597" cy="26.0571" rx="2.14431" ry="2.16257" stroke="white"/>
<path d="M27.2252 18.7354C26.7387 20.8638 25.679 22.6712 23.7424 23.9881C21.6522 25.4473 19.4458 26.1507 17.0386 26.6344C17.0995 25.1423 16.937 23.0434 17.6999 21.7129C18.5658 20.2355 19.8305 19.037 21.3464 18.2573C23.0178 17.3866 25.6034 16.533 27.4813 17.1362C27.4291 17.6741 27.3436 18.2082 27.2252 18.7354V18.7354Z" fill="url(#paint2_linear_872_2889)"/>
<path d="M27.4217 25.1094C27.4126 25.1481 28.3155 28.7903 28.3155 28.7903H26.9048" stroke="#00214E"/>
<path d="M28.7148 23.9461C29.5119 23.5353 30.4344 23.4474 31.2937 23.7002" stroke="#00214E"/>
<path d="M22.4951 24.3638C23.5947 23.799 24.8865 23.7573 26.0197 24.25" stroke="#00214E"/>
<path d="M26.6079 26.3988L28.3155 26.252" stroke="white"/>
<path d="M38.483 42.2973C30.9386 48.1557 20.4156 48.1088 12.9229 42.1834L18.4145 39.5872C18.6761 39.4632 18.9271 39.3178 19.165 39.1524C19.2373 39.1024 19.3095 39.05 19.3783 38.9954C19.9766 38.5339 20.4689 37.9477 20.8218 37.2767C21.0878 36.7622 21.2645 36.2055 21.3443 35.6309C21.424 35.7087 21.5077 35.7824 21.5949 35.8517C22.2869 36.3677 23.0379 36.798 23.8317 37.1333C24.2171 37.2954 24.6113 37.4356 25.0122 37.5533C26.2203 37.9085 27.4816 38.0431 28.7365 37.9505C28.9103 37.9368 29.0853 37.9198 29.2591 37.9072L29.276 38.4854V38.523L30.6416 39.083L38.483 42.2973Z" fill="#845161"/>
<path d="M24.4882 30.0752C24.5196 30.0254 24.5702 29.9909 24.6277 29.9801C24.6853 29.9694 24.7447 29.9832 24.7918 30.0183C25.0254 30.1845 25.4543 30.5373 26.0637 30.6591C26.8944 30.8264 27.6155 30.4906 27.7871 30.7069C27.8841 30.8287 27.7656 30.9778 27.5388 31.1679C27.059 31.5296 26.4548 31.6811 25.8628 31.5879C25.0627 31.4365 24.4634 30.5032 24.4634 30.1719C24.463 30.138 24.4716 30.1047 24.4882 30.0752V30.0752Z" fill="white"/>
<defs>
<filter id="filter0_d_872_2889" x="0" y="0" width="51" height="51.3496" filterUnits="userSpaceOnUse" color-interpolation-filters="sRGB">
<feFlood flood-opacity="0" result="BackgroundImageFix"/>
<feColorMatrix in="SourceAlpha" type="matrix" values="0 0 0 0 0 0 0 0 0 0 0 0 0 0 0 0 0 0 127 0" result="hardAlpha"/>
<feMorphology radius="1" operator="dilate" in="SourceAlpha" result="effect1_dropShadow_872_2889"/>
<feOffset/>
<feGaussianBlur stdDeviation="2"/>
<feComposite in2="hardAlpha" operator="out"/>
<feColorMatrix type="matrix" values="0 0 0 0 0 0 0 0 0 0 0 0 0 0 0 0 0 0 0.1 0"/>
<feBlend mode="normal" in2="BackgroundImageFix" result="effect1_dropShadow_872_2889"/>
<feBlend mode="normal" in="SourceGraphic" in2="effect1_dropShadow_872_2889" result="shape"/>
</filter>
<linearGradient id="paint0_linear_872_2889" x1="19.6592" y1="19.5604" x2="26.583" y2="19.5604" gradientUnits="userSpaceOnUse">
<stop stop-color="#16243F"/>
<stop offset="1" stop-color="#6878B1"/>
</linearGradient>
<linearGradient id="paint1_linear_872_2889" x1="24.8974" y1="42.1792" x2="35.3371" y2="25.5897" gradientUnits="userSpaceOnUse">
<stop stop-color="#16243F"/>
<stop offset="1" stop-color="#6878B1"/>
</linearGradient>
<linearGradient id="paint2_linear_872_2889" x1="20.5951" y1="29.9379" x2="25.7604" y2="22.9278" gradientUnits="userSpaceOnUse">
<stop stop-color="#16243F"/>
<stop offset="1" stop-color="#6878B1"/>
</linearGradient>
</defs>
</svg>
