<svg width="89" height="30" viewBox="0 0 89 30" fill="none" xmlns="http://www.w3.org/2000/svg">
<path d="M3.87646 20.2694C3.91714 19.6051 3.95781 18.6154 3.95781 17.7478V5.92578H5.72026V12.0672H5.76093C6.38457 10.9827 7.52338 10.2641 9.09603 10.2641C11.5228 10.2641 13.2446 12.2842 13.2175 15.2532C13.2175 18.751 11.0212 20.4863 8.83844 20.4863C7.42848 20.4863 6.28967 19.944 5.57113 18.6425H5.5169L5.40844 20.2694H3.87646ZM5.72026 16.3514C5.72026 16.5683 5.76093 16.7987 5.8016 17.0021C6.14054 18.2358 7.17089 19.0764 8.47239 19.0764C10.3297 19.0764 11.4414 17.558 11.4414 15.321C11.4414 13.3552 10.4246 11.6876 8.52662 11.6876C7.32002 11.6876 6.18121 12.5146 5.81516 13.8704C5.77449 14.0737 5.72026 14.3178 5.72026 14.6025V16.3514Z" fill="#A60000"/>
<path d="M20.8794 20.271L20.7438 19.0373H20.6896C20.1473 19.8101 19.0898 20.488 17.6934 20.488C15.7141 20.488 14.6973 19.0915 14.6973 17.6816C14.6973 15.3226 16.7986 14.0211 20.5811 14.0482V13.8449C20.5811 13.0314 20.3642 11.5808 18.3577 11.5808C17.4494 11.5808 16.5004 11.8655 15.809 12.3129L15.4022 11.147C16.2157 10.6182 17.3816 10.2793 18.6153 10.2793C21.6115 10.2793 22.33 12.3265 22.33 14.2787V17.9392C22.33 18.7933 22.3707 19.6203 22.4927 20.2846L20.8794 20.271ZM20.6083 15.2819C18.6696 15.2413 16.4733 15.5802 16.4733 17.4782C16.4733 18.6306 17.246 19.1729 18.1544 19.1729C19.4288 19.1729 20.2286 18.3595 20.5133 17.5325C20.5676 17.3562 20.6083 17.1529 20.6083 16.9631V15.2819Z" fill="#A60000"/>
<path d="M25.2007 5.92578H26.9767V20.2694H25.2007V5.92578Z" fill="#A60000"/>
<path d="M29.7299 18.4543C30.2586 18.7932 31.1805 19.1593 32.0753 19.1593C33.3632 19.1593 33.9733 18.5085 33.9733 17.7086C33.9733 16.8545 33.4717 16.3936 32.1566 15.9055C30.3942 15.2818 29.5672 14.3057 29.5672 13.1398C29.5672 11.5671 30.8416 10.2656 32.943 10.2656C33.9327 10.2656 34.8003 10.5503 35.3426 10.8757L34.8952 12.1637C34.5156 11.9196 33.8106 11.5942 32.8887 11.5942C31.8448 11.5942 31.2483 12.2043 31.2483 12.9229C31.2483 13.7363 31.8313 14.0888 33.1057 14.5769C34.8003 15.2276 35.668 16.0682 35.668 17.5324C35.668 19.2542 34.3394 20.4608 32.0075 20.4608C30.9365 20.4608 29.9468 20.2032 29.2554 19.7964L29.7299 18.4543Z" fill="#A60000"/>
<path d="M43.3833 20.271L43.2477 19.0373H43.1935C42.6512 19.8101 41.5937 20.488 40.1973 20.488C38.218 20.488 37.2012 19.0915 37.2012 17.6816C37.2012 15.3226 39.3026 14.0211 43.085 14.0482V13.8449C43.085 13.0314 42.8681 11.5808 40.8616 11.5808C39.9533 11.5808 39.0043 11.8655 38.3129 12.3129L37.9062 11.147C38.7196 10.6182 39.8855 10.2793 41.1192 10.2793C44.1154 10.2793 44.8339 12.3265 44.8339 14.2787V17.9392C44.8339 18.7933 44.8746 19.6203 44.9966 20.2846L43.3833 20.271ZM43.1257 15.2819C41.187 15.2413 38.9907 15.5802 38.9907 17.4782C38.9907 18.6306 39.7635 19.1729 40.6718 19.1729C41.9462 19.1729 42.7461 18.3595 43.0308 17.5325C43.085 17.3562 43.1257 17.1529 43.1257 16.9631V15.2819Z" fill="#A60000"/>
<path d="M47.7068 13.1398C47.7068 12.123 47.6933 11.296 47.6255 10.4961H49.1846L49.2659 12.0687H49.3337C49.876 11.1333 50.7844 10.2656 52.3977 10.2656C53.7263 10.2656 54.7431 11.0791 55.1634 12.2314H55.204C55.5023 11.6891 55.8955 11.2689 56.3022 10.957C56.8852 10.5097 57.5359 10.2656 58.4714 10.2656C59.7593 10.2656 61.6845 11.1197 61.6845 14.5091V20.2709H59.9491V14.7395C59.9491 12.8551 59.2577 11.7298 57.8342 11.7298C56.8174 11.7298 56.031 12.4755 55.7328 13.3431C55.6514 13.5872 55.5972 13.9125 55.5972 14.2379V20.2845H53.8619V14.4277C53.8619 12.8686 53.1704 11.7434 51.8147 11.7434C50.703 11.7434 49.8896 12.6382 49.6184 13.5194C49.5235 13.777 49.4828 14.0888 49.4828 14.387V20.2845H47.7068V13.1398Z" fill="#A60000"/>
<path d="M66.5498 7.74256C66.5634 8.35264 66.1295 8.82715 65.4246 8.82715C64.8009 8.82715 64.3535 8.33909 64.3535 7.74256C64.3535 7.11893 64.8145 6.63086 65.4652 6.63086C66.116 6.63086 66.5498 7.11893 66.5498 7.74256ZM64.5569 20.2696V10.4947H66.3329V20.2696H64.5569Z" fill="#A60000"/>
<path d="M75.9587 18.7662H75.918C75.3893 19.7423 74.3047 20.5015 72.732 20.5015C70.4544 20.5015 68.5835 18.5221 68.5835 15.5531C68.5835 11.8926 70.9425 10.2793 73.0032 10.2793C74.5216 10.2793 75.5248 11.0249 76.0129 11.974H76.0536L76.1078 10.4962H77.8025C77.7618 11.3232 77.7482 12.1773 77.7482 13.1806V24.2704H75.9722L75.9587 18.7662ZM75.9587 14.4549C75.9587 14.2109 75.9451 13.9262 75.8773 13.7093C75.6197 12.6247 74.6707 11.6893 73.3286 11.6893C71.4848 11.6893 70.3731 13.2483 70.3731 15.4446C70.3731 17.3833 71.3085 19.078 73.2608 19.078C74.4131 19.078 75.4028 18.373 75.8095 17.1393C75.8909 16.8952 75.9451 16.5563 75.9451 16.2852V14.4549H75.9587Z" fill="#A60000"/>
<path d="M85.215 12.4598C85.215 13.7071 84.2254 14.6968 82.951 14.6968C81.6901 14.6968 80.6733 13.7071 80.6733 12.4598C80.6733 11.2397 81.6901 10.25 82.951 10.25C84.2254 10.25 85.215 11.2397 85.215 12.4598ZM81.2427 12.4598C81.2427 13.4495 81.9748 14.2223 82.9645 14.2223C83.9406 14.2223 84.6456 13.436 84.6456 12.4734C84.6456 11.4837 83.9271 10.6974 82.951 10.6974C81.9748 10.6974 81.2427 11.4973 81.2427 12.4598ZM82.5985 13.6258H82.0833V11.4159C82.2867 11.3753 82.5714 11.3481 82.9374 11.3481C83.3577 11.3481 83.5475 11.4159 83.7102 11.5108C83.8322 11.6057 83.9271 11.782 83.9271 11.9989C83.9271 12.2429 83.7373 12.4327 83.4661 12.5141V12.5412C83.6831 12.6225 83.8051 12.7852 83.8729 13.0835C83.9406 13.4224 83.9813 13.558 84.0356 13.6393H83.4797C83.4119 13.558 83.3712 13.3546 83.3035 13.097C83.2628 12.853 83.1272 12.7445 82.8425 12.7445H82.5985V13.6258ZM82.612 12.3649H82.8561C83.1408 12.3649 83.3712 12.27 83.3712 12.0396C83.3712 11.8362 83.2221 11.7006 82.8967 11.7006C82.7612 11.7006 82.6663 11.7142 82.612 11.7277V12.3649Z" fill="#A60000"/>
<rect x="1.05322" y="0.900391" width="87.3937" height="27.728" rx="4.5" stroke="#A60000"/>
</svg>
