<svg width="75" height="64" viewBox="0 0 75 64" fill="none" xmlns="http://www.w3.org/2000/svg">
<g filter="url(#filter0_d_740_784)">
<rect x="6.74512" y="5" width="60" height="50" rx="14" fill="white"/>
</g>
<path d="M34.234 32.8951C34.234 34.1444 33.2965 34.5393 32.1447 34.5393H29.1246V31.115H32.2049C33.4505 31.1214 34.234 31.6199 34.234 32.8951ZM33.7183 27.5676C33.7183 26.4219 32.8009 26.15 31.7831 26.15H29.1313V29.05H31.9907C33.0018 29.05 33.7183 28.6228 33.7183 27.5676ZM42.5777 29.0694C41.3523 29.0694 40.5353 29.8074 40.4549 30.992H44.6201C44.5063 29.7944 43.8634 29.0694 42.5777 29.0694ZM51.7451 19.1071V41.8929C51.7451 43.6083 50.3054 45 48.5308 45H24.9594C23.1848 45 21.7451 43.6083 21.7451 41.8929V19.1071C21.7451 17.3917 23.1848 16 24.9594 16H48.5308C50.3054 16 51.7451 17.3917 51.7451 19.1071ZM39.9393 25.904H45.1491V24.6806H39.9393V25.904ZM37.0598 33.044C37.0598 31.4839 36.2965 30.1375 34.7161 29.7038C35.8679 29.173 36.4706 28.558 36.4706 27.3087C36.4706 24.8359 34.5621 24.2339 32.359 24.2339H26.2987V36.6625H32.5331C34.8701 36.6496 37.0598 35.5685 37.0598 33.044ZM47.1915 32.0859C47.1915 29.4254 45.5777 27.2051 42.6648 27.2051C39.8255 27.2051 37.9036 29.2636 37.9036 31.9694C37.9036 34.7723 39.7317 36.6949 42.6648 36.6949C44.888 36.6949 46.3277 35.7304 47.0241 33.6654H44.7674C44.5197 34.4357 43.5219 34.8371 42.7451 34.8371C41.2451 34.8371 40.4616 33.9891 40.4616 32.552H47.1715C47.1782 32.4031 47.1915 32.2413 47.1915 32.0859Z" fill="#053EFF"/>
<defs>
<filter id="filter0_d_740_784" x="0.745117" y="0" width="74" height="64" filterUnits="userSpaceOnUse" color-interpolation-filters="sRGB">
<feFlood flood-opacity="0" result="BackgroundImageFix"/>
<feColorMatrix in="SourceAlpha" type="matrix" values="0 0 0 0 0 0 0 0 0 0 0 0 0 0 0 0 0 0 127 0" result="hardAlpha"/>
<feMorphology radius="3" operator="dilate" in="SourceAlpha" result="effect1_dropShadow_740_784"/>
<feOffset dx="1" dy="2"/>
<feGaussianBlur stdDeviation="2"/>
<feComposite in2="hardAlpha" operator="out"/>
<feColorMatrix type="matrix" values="0 0 0 0 0 0 0 0 0 0 0 0 0 0 0 0 0 0 0.07 0"/>
<feBlend mode="normal" in2="BackgroundImageFix" result="effect1_dropShadow_740_784"/>
<feBlend mode="normal" in="SourceGraphic" in2="effect1_dropShadow_740_784" result="shape"/>
</filter>
</defs>
</svg>
