<svg width="58" height="56" viewBox="0 0 58 56" fill="none" xmlns="http://www.w3.org/2000/svg">
<path d="M31.1039 19.8671H21.536C16.9123 19.8671 13.1641 16.2216 13.1641 11.7246C13.1641 7.22756 16.9123 3.58203 21.536 3.58203H31.1039V19.8671Z" fill="#E64A19"/>
<path d="M29.9079 36.1523H21.536C16.9123 36.1523 13.1641 32.5067 13.1641 28.0097C13.1641 23.5127 16.9123 19.8672 21.536 19.8672H29.9079V36.1523Z" fill="#7C4DFF"/>
<path d="M21.536 52.4374C16.9123 52.4374 13.1641 48.7919 13.1641 44.2949C13.1641 39.7979 16.9123 36.1523 21.536 36.1523H29.9079V44.2949C29.9079 48.7919 26.1596 52.4374 21.536 52.4374Z" fill="#66BB6A"/>
<path d="M38.2796 19.8671H29.9077V3.58203H38.2796C42.9033 3.58203 46.6515 7.22756 46.6515 11.7246C46.6515 16.2216 42.9033 19.8671 38.2796 19.8671Z" fill="#FF7043"/>
<path d="M38.2796 36.1523C42.9033 36.1523 46.6515 32.5067 46.6515 28.0097C46.6515 23.5127 42.9033 19.8672 38.2796 19.8672C33.6559 19.8672 29.9077 23.5127 29.9077 28.0097C29.9077 32.5067 33.6559 36.1523 38.2796 36.1523Z" fill="#29B6F6"/>
</svg>
