<svg width="75" height="64" viewBox="0 0 75 64" fill="none" xmlns="http://www.w3.org/2000/svg">
<g filter="url(#filter0_d_740_787)">
<rect x="6.74512" y="5" width="60" height="50" rx="14" fill="white"/>
</g>
<path d="M53.101 25.5854C53.36 25.3755 53.7451 25.5719 53.7451 25.9036V39.75C53.7451 41.5443 52.3174 43 50.5576 43H22.9326C21.1729 43 19.7451 41.5443 19.7451 39.75V25.9104C19.7451 25.5719 20.1236 25.3823 20.3893 25.5922C21.8768 26.7703 23.849 28.2667 30.6225 33.2839C32.0236 34.3266 34.3877 36.5203 36.7451 36.5068C39.1158 36.5271 41.5264 34.2859 42.8744 33.2839C49.6479 28.2667 51.6135 26.7635 53.101 25.5854ZM36.7451 34.3333C38.2857 34.3604 40.5037 32.3563 41.6193 31.5302C50.4314 25.0099 51.1021 24.4411 53.1342 22.8161C53.5193 22.5115 53.7451 22.0375 53.7451 21.5365V20.25C53.7451 18.4557 52.3174 17 50.5576 17H22.9326C21.1729 17 19.7451 18.4557 19.7451 20.25V21.5365C19.7451 22.0375 19.9709 22.5047 20.3561 22.8161C22.3881 24.4344 23.0588 25.0099 31.8709 31.5302C32.9865 32.3563 35.2045 34.3604 36.7451 34.3333Z" fill="#EF5E43"/>
<defs>
<filter id="filter0_d_740_787" x="0.745117" y="0" width="74" height="64" filterUnits="userSpaceOnUse" color-interpolation-filters="sRGB">
<feFlood flood-opacity="0" result="BackgroundImageFix"/>
<feColorMatrix in="SourceAlpha" type="matrix" values="0 0 0 0 0 0 0 0 0 0 0 0 0 0 0 0 0 0 127 0" result="hardAlpha"/>
<feMorphology radius="3" operator="dilate" in="SourceAlpha" result="effect1_dropShadow_740_787"/>
<feOffset dx="1" dy="2"/>
<feGaussianBlur stdDeviation="2"/>
<feComposite in2="hardAlpha" operator="out"/>
<feColorMatrix type="matrix" values="0 0 0 0 0 0 0 0 0 0 0 0 0 0 0 0 0 0 0.07 0"/>
<feBlend mode="normal" in2="BackgroundImageFix" result="effect1_dropShadow_740_787"/>
<feBlend mode="normal" in="SourceGraphic" in2="effect1_dropShadow_740_787" result="shape"/>
</filter>
</defs>
</svg>
