<svg width="43" height="43" viewBox="0 0 43 43" fill="none" xmlns="http://www.w3.org/2000/svg">
<path d="M25.1528 42.1602H17.5942V34.9375H25.1528V42.1602ZM20.1138 40.4805H22.6333V37.457H20.1138V40.4805Z" fill="#8B8992"/>
<path d="M21.4995 37.457H22.6333V40.4805H21.4995V42.1602H25.1528V34.9375H21.4995V37.457Z" fill="#57555C"/>
<path d="M40.354 31.5781H2.64502V11.4219H40.354V31.5781Z" fill="#9BC9FF"/>
<path d="M40.3535 11.4219H21.499V31.5781H40.3535V11.4219Z" fill="#009AE5"/>
<path d="M27.6719 40.4805H15.0742V43H27.6719V40.4805Z" fill="#005ECE"/>
<path d="M20.1138 31.5781H12.5552V14.3613H20.1138V31.5781Z" fill="#B87FD9"/>
<path d="M20.1138 31.5781H16.3345V14.3613H20.1138V31.5781Z" fill="#8034AD"/>
<path d="M24.3288 11.002H8.25547L4.98755 0L9.79507 0C11.5116 0 13.5095 0.614262 15.0743 1.72185V0L27.5966 0L24.3288 11.002Z" fill="#8B8992"/>
<path d="M27.597 0L16.2925 0V11.002H24.3292L27.597 0Z" fill="#57555C"/>
<path d="M20.8696 16.8809H11.7993C9.71541 16.8809 8.02002 15.1855 8.02002 13.1016V8.48242H24.6489V13.1016C24.6489 15.1855 22.9535 16.8809 20.8696 16.8809Z" fill="#E3CEF0"/>
<path d="M16.3345 8.48242V16.8809H20.8696C22.9535 16.8809 24.6489 15.1855 24.6489 13.1016V8.48242H16.3345Z" fill="#D5B4E8"/>
<path d="M35.9206 9.93913C35.1538 9.93913 34.3971 9.73807 33.7151 9.34435C32.6914 8.75327 31.9591 7.79896 31.6532 6.65711C31.3472 5.51534 31.5042 4.32276 32.0953 3.29908C32.6864 2.27539 33.6407 1.54313 34.7825 1.23718L39.0572 0.0917969L40.2025 4.36643C40.5084 5.5082 40.3515 6.70078 39.7604 7.72446C39.1693 8.74815 38.2151 9.48049 37.0732 9.78636C36.692 9.88857 36.3049 9.93913 35.9206 9.93913Z" fill="#E0E0E2"/>
<path d="M40.2024 4.36643L39.0571 0.0917969H39.057L33.7151 9.34427C34.397 9.73799 35.1537 9.93913 35.9206 9.93905C36.305 9.93905 36.692 9.88849 37.0732 9.78637C38.215 9.48041 39.1693 8.74815 39.7604 7.72446C40.3514 6.70078 40.5083 5.5082 40.2024 4.36643Z" fill="#ACABB1"/>
<path d="M23.5928 34.4351L17.0469 30.6558L27.5449 12.4727L34.0908 16.252L23.5928 34.4351Z" fill="#FFE477"/>
<path d="M20.3192 32.5459L23.592 34.4355L34.0899 16.2533L30.8171 14.3637L20.3192 32.5459Z" fill="#FFA733"/>
<path d="M33.8006 18.994L25.3152 14.0949L32.6276 5.80664L37.3222 8.51707L33.8006 18.994Z" fill="#FF9A00"/>
<path d="M37.3221 8.51728L34.9749 7.16211L29.5579 16.5446L33.8006 18.9942L37.3221 8.51728Z" fill="#E67500"/>
<path d="M40.354 37.457H2.64502V29.0586H40.354V37.457Z" fill="#005ECE"/>
<path d="M40.3535 29.0586H21.499V37.457H40.3535V29.0586Z" fill="#003F8A"/>
<path d="M27.6719 40.4805H21.373V43H27.6719V40.4805Z" fill="#003F8A"/>
</svg>
