<svg width="73" height="73" viewBox="0 0 73 73" fill="none" xmlns="http://www.w3.org/2000/svg">
<path d="M12.0249 11.8809V61.6208H61.2242V11.8809H12.0249ZM16.4976 16.4027H56.7515V57.099H16.4976V16.4027ZM29.6972 23.1854C28.4258 23.1939 27.1607 24.0509 27.1551 25.7466C27.1551 27.1935 28.3208 28.3475 29.7408 28.3475C30.1411 28.3362 32.3122 27.9609 32.2742 25.7068C32.2462 24.0157 30.9685 23.1769 29.6972 23.1854ZM44.6832 30.4273C42.785 30.5879 40.7102 31.917 39.2627 34.6445L40.1101 30.7453H33.5539L32.6323 34.172H35.7073L33.8204 41.8246C32.2482 45.3607 28.3519 46.0735 28.3519 44.059C28.3809 42.9715 28.2812 43.6279 31.4836 30.7453H24.2024L23.2808 34.1764H26.3121C24.2055 42.856 24.1284 42.8278 24.1194 44.2047C24.1194 48.8961 30.1335 49.6096 33.1346 44.6198L32.3615 47.7507H36.6595L39.1186 37.7974C40.5207 32.0456 46.1714 33.2613 44.8273 37.7311C43.9596 40.8738 40.955 48.0024 47.2078 48.0024C49.4754 48.0024 51.2792 46.5264 52.2788 42.9904L50.5754 42.3457C49.2135 46.1508 47.5441 45.4652 47.5441 43.9707C47.5732 43.1907 47.6107 43.2294 48.9637 38.3052C50.5179 33.139 47.8468 30.1597 44.6832 30.4273Z" fill="#FA314A"/>
</svg>
