<svg width="67" height="67" viewBox="0 0 67 67" fill="none" xmlns="http://www.w3.org/2000/svg">
<path d="M50.1414 8.93945H16.7193C12.1043 8.93945 8.36377 12.5919 8.36377 17.0984V49.7341C8.36377 54.2405 12.1043 57.893 16.7193 57.893H50.1414C54.7564 57.893 58.4969 54.2405 58.4969 49.7341V17.0984C58.4969 12.5919 54.7564 8.93945 50.1414 8.93945Z" fill="#50E6FF"/>
<path d="M50.1413 55.1744H16.7193C13.643 55.1744 11.1489 52.7389 11.1489 49.7351V17.0994C11.1489 14.0956 13.643 11.6602 16.7193 11.6602H50.1413C53.2176 11.6602 55.7117 14.0956 55.7117 17.0994V49.7351C55.7117 52.7389 53.2176 55.1744 50.1413 55.1744Z" fill="#092347"/>
<path d="M20.2114 21.6838C20.2114 21.5397 20.3187 21.4186 20.4649 21.4023C21.0219 21.3425 22.576 21.2188 25.8918 21.2188C30.8884 21.2188 34.388 23.1538 34.388 28.4489C34.388 33.2246 31.0583 36.0272 25.6857 36.0272C25.3724 36.0272 25.059 36.0272 23.9923 36.0272V44.0256C23.9923 44.1589 23.8809 44.2677 23.7444 44.2677H20.4607C20.3242 44.2677 20.2128 44.1589 20.2128 44.0256V21.6838H20.2114ZM23.9923 32.6644C23.9923 32.6644 25.6453 32.6752 26.0185 32.6752C29.0864 32.6752 30.4818 30.8993 30.4818 28.5196C30.4818 26.2909 29.1254 24.553 26.2901 24.553C25.1217 24.553 23.9937 24.6183 23.9937 24.6183V32.6644H23.9923Z" fill="white"/>
<path d="M36.4326 40.1755C36.4326 40.0464 36.5761 39.9661 36.6861 40.0368C37.3879 40.4951 38.8125 41.2797 41.0184 41.2797C42.4583 41.2797 43.3691 40.6746 43.3691 39.6874C43.3691 38.5941 41.8303 37.8013 40.5602 37.1282C39.2972 36.4592 36.4605 35.3849 36.4605 31.9255C36.4605 28.8591 38.9699 27.0098 42.3873 27.0098C43.6963 27.0098 45.1405 27.2083 46.1153 27.5551C46.2754 27.6122 46.3729 27.7645 46.3729 27.9317V31.0471C46.3729 31.1749 46.235 31.2578 46.125 31.1871C45.5137 30.7969 44.1657 30.1999 42.3107 30.1999C40.7663 30.1999 40.0868 30.9342 40.0868 31.6821C40.0868 32.993 41.8748 33.541 43.4791 34.4602C45.9816 35.82 47.1416 37.1486 47.1416 39.2305C47.1416 42.6355 44.5416 44.5474 41.0198 44.5474C39.2011 44.5474 37.491 44.1598 36.6164 43.6404C36.4953 43.5683 36.434 43.4377 36.434 43.299L36.4326 40.1755Z" fill="white"/>
</svg>
