<svg width="38" height="38" viewBox="0 0 38 38" fill="none" xmlns="http://www.w3.org/2000/svg">
<g clip-path="url(#clip0_950_3185)">
<path d="M13.4336 30.1328H24.5664V36.8867H13.4336V30.1328Z" fill="#D8D8FC"/>
<path d="M19 30.1328H24.5664V36.8867H19V30.1328Z" fill="#A3A3D1"/>
<path d="M38 0V26.7188L35.7734 28.9453H2.22656L0 26.7188L0 0L38 0Z" fill="#32393F"/>
<path d="M38 0V26.7188L35.7734 28.9453H19V0L38 0Z" fill="#32393F"/>
<path d="M2.22656 2.22656H35.7734V24.4922H2.22656V2.22656Z" fill="#FFD396"/>
<path d="M19 2.22656H35.7734V24.4922H19V2.22656Z" fill="#FFB64C"/>
<path d="M8.98047 35.7734H29.0195V38H8.98047V35.7734Z" fill="#F2F2FC"/>
<path d="M19 35.7734H29.0195V38H19V35.7734Z" fill="#D8D8FC"/>
<path d="M24.6999 16.6992L22.3397 22.2656L19.6902 24.4922H18.3096L15.66 22.2656L13.2998 16.6992L17.7529 7.79297H20.2468L24.6999 16.6992Z" fill="#F2F2FC"/>
<path d="M24.7001 16.6992L22.3398 22.2656L19.6903 24.4922H19V7.79297H20.2469L24.7001 16.6992Z" fill="#D8D8FC"/>
<path d="M17.8867 7.79297H20.1133V17.8125H17.8867V7.79297Z" fill="#D8D8FC"/>
<path d="M19 7.79297H20.1133V17.8125H19V7.79297Z" fill="#A3A3D1"/>
<path d="M10.0938 6.67969H27.9062V8.90625H10.0938V6.67969Z" fill="#575F64"/>
<path d="M19 6.67969H27.9062V8.90625H19V6.67969Z" fill="#32393F"/>
<path d="M11.207 11.1328H4.45312V4.45312H11.207V11.1328Z" fill="#FF641A"/>
<path d="M33.5469 11.1328H26.793V4.45312H33.5469V11.1328Z" fill="#F03800"/>
<path d="M15.6602 22.2656H22.3398V28.9453H15.6602V22.2656Z" fill="#FF641A"/>
<path d="M19 22.2656H22.3398V28.9453H19V22.2656Z" fill="#F03800"/>
<path d="M0 26.7188H38V31.2461H0L0 26.7188Z" fill="#F2F2FC"/>
<path d="M19 26.7188H38V31.2461H19V26.7188Z" fill="#D8D8FC"/>
</g>
<defs>
<clipPath id="clip0_950_3185">
<rect width="38" height="38" fill="white"/>
</clipPath>
</defs>
</svg>
