<svg width="43" height="43" viewBox="0 0 43 43" fill="none" xmlns="http://www.w3.org/2000/svg">
<g clip-path="url(#clip0_950_3186)">
<path d="M27.2391 36.7361V33.2871H15.7611V36.7361C15.8087 39.6074 14.1763 42.3687 14.1763 42.3687H28.824C28.824 42.3687 27.1915 39.6075 27.2391 36.7361V36.7361Z" fill="#ACACAC"/>
<path d="M15.7607 33.9688H27.2392V35.6746H15.7607V33.9688Z" fill="#9C9C9C"/>
<path d="M41.6322 33.9682H1.36753C0.795902 33.9682 0.33252 33.5048 0.33252 32.9332L0.33252 8.17954C0.33252 7.60791 0.795902 7.14453 1.36753 7.14453H41.6322C42.2039 7.14453 42.6673 7.60791 42.6673 8.17954V32.9333C42.6673 33.5048 42.2039 33.9682 41.6322 33.9682Z" fill="#ACACAC"/>
<path d="M42.6672 8.17996V32.9338C42.6672 33.5053 42.204 33.9684 41.6317 33.9684H39.9268C40.4982 33.9684 40.9613 33.5053 40.9613 32.9338V8.17996C40.9613 7.6085 40.4982 7.14453 39.9268 7.14453H41.6317C42.204 7.14453 42.6672 7.6085 42.6672 8.17996V8.17996Z" fill="#9C9C9C"/>
<path d="M3.62744 29.0273V11.1393C3.62744 10.6147 4.03246 10.1895 4.53212 10.1895H38.4677C38.9674 10.1895 39.3724 10.6147 39.3724 11.1393V29.0273H3.62744Z" fill="#C4E2FF"/>
<path d="M39.373 11.1396V29.0275H37.6671V11.1396C37.6671 10.615 37.262 10.1895 36.7622 10.1895H38.468C38.9678 10.1895 39.373 10.615 39.373 11.1396V11.1396Z" fill="#A5D5F9"/>
<path d="M31.235 42.9999H11.7651C11.4172 42.9999 11.1353 42.7179 11.1353 42.3701C11.1353 42.0222 11.4172 41.7402 11.7651 41.7402H31.235C31.5829 41.7402 31.8649 42.0222 31.8649 42.3701C31.8649 42.7179 31.5829 42.9999 31.235 42.9999Z" fill="#5A5A5A"/>
<path d="M35.4738 29.0271H7.52588V0.694822C7.52588 0.311049 7.83701 0 8.2207 0L34.7789 0C35.1626 0 35.4737 0.311133 35.4737 0.694822V29.0271H35.4738Z" fill="#EAF6FF"/>
<path d="M35.4742 0.695158V29.0277H33.7684V0.695158C33.7684 0.311385 33.4571 0 33.0732 0L34.7791 0C35.1629 0 35.4742 0.311301 35.4742 0.695158V0.695158Z" fill="#D8ECFE"/>
<path d="M18.12 4.56836C17.2971 4.56836 16.63 5.23547 16.63 6.05844V11.8965C16.63 12.1097 16.63 12.5065 15.8492 12.8997C15.6331 13.0085 15.3949 13.0614 15.1213 13.0614C15.1204 13.0614 15.1194 13.0614 15.1186 13.0614C14.8277 13.0611 14.5774 12.9913 14.3532 12.848C13.7572 12.4673 13.7087 12.1946 13.7087 11.9026V6.05844C13.7087 5.23547 13.0416 4.56836 12.2186 4.56836C11.3956 4.56836 10.7285 5.23547 10.7285 6.05844V11.9027C10.7285 13.34 11.4082 14.5031 12.7487 15.3595C13.4554 15.811 14.2513 16.0406 15.1146 16.0417H15.1213C15.8611 16.0417 16.557 15.8802 17.1898 15.5615C18.7507 14.7755 19.6104 13.4738 19.6104 11.8966V6.05852C19.6101 5.23547 18.943 4.56836 18.12 4.56836V4.56836Z" fill="#97D729"/>
<path d="M31.9682 13.71L29.1528 10.0003L31.494 6.89523C31.9895 6.23811 31.8585 5.30379 31.2014 4.80833C30.5441 4.31262 29.6099 4.44387 29.1145 5.10099L27.2804 7.53328L25.4317 5.09729C24.9341 4.44177 23.9994 4.31371 23.3439 4.8111C22.6883 5.30866 22.5602 6.24341 23.0577 6.89893L25.4158 10.0061L22.7335 13.5635C22.2381 14.2206 22.3691 15.1549 23.0262 15.6504C23.2948 15.853 23.6097 15.9508 23.9222 15.9508C24.3739 15.9508 24.8202 15.7462 25.1132 15.3577L27.2882 12.4732L29.5941 15.5117C29.8873 15.8979 30.3321 16.1011 30.7822 16.1011C31.0962 16.1011 31.4127 16.0022 31.682 15.7979C32.3376 15.3003 32.4657 14.3655 31.9682 13.71V13.71Z" fill="#97D729"/>
<path d="M19.6103 6.05835V11.8965C19.6103 13.4743 18.7514 14.7759 17.1898 15.5614C16.5578 15.8803 15.8618 16.0416 15.1215 16.0416H15.1147C14.8427 16.0407 14.5774 16.0186 14.3198 15.9734C14.7582 15.8975 15.1761 15.7602 15.5693 15.5614C17.1309 14.7759 17.9898 13.4743 17.9898 11.8965V6.05835C17.9898 5.53384 17.7194 5.07323 17.3101 4.80803C17.5429 4.6562 17.821 4.56836 18.1203 4.56836C18.9433 4.56836 19.6103 5.2353 19.6103 6.05835V6.05835Z" fill="#8BC727"/>
<path d="M31.6828 15.7979C31.4133 16.0027 31.0969 16.1016 30.783 16.1016C30.4981 16.1016 30.215 16.0197 29.9719 15.8611C30.0026 15.8414 30.0324 15.8202 30.0623 15.7979C30.7182 15.3007 30.8461 14.3659 30.3489 13.71L27.766 10.3072C27.6285 10.1259 27.6281 9.87531 27.765 9.69358L29.8747 6.89532C30.3702 6.23862 30.2389 5.30379 29.5821 4.80825C29.5531 4.78692 29.5241 4.76643 29.4943 4.7477C30.0044 4.41675 30.6883 4.42019 31.2026 4.80825C31.8593 5.30379 31.9907 6.23854 31.4952 6.89532L29.154 10.0008L31.9694 13.71C32.4666 14.3659 32.3387 15.3007 31.6828 15.7979V15.7979Z" fill="#8BC727"/>
<path d="M32.2712 19.9589H10.7285C10.3806 19.9589 10.0986 19.6769 10.0986 19.329C10.0986 18.9812 10.3806 18.6992 10.7285 18.6992H32.2712C32.619 18.6992 32.901 18.9812 32.901 19.329C32.901 19.6769 32.619 19.9589 32.2712 19.9589Z" fill="#96CCED"/>
<path d="M32.2712 22.5546H10.7285C10.3806 22.5546 10.0986 22.2726 10.0986 21.9247C10.0986 21.5769 10.3806 21.2949 10.7285 21.2949H32.2712C32.619 21.2949 32.901 21.5769 32.901 21.9247C32.901 22.2726 32.619 22.5546 32.2712 22.5546Z" fill="#96CCED"/>
<path d="M32.2712 25.1483H10.7285C10.3806 25.1483 10.0986 24.8663 10.0986 24.5185C10.0986 24.1707 10.3806 23.8887 10.7285 23.8887H32.2712C32.619 23.8887 32.901 24.1707 32.901 24.5185C32.901 24.8663 32.619 25.1483 32.2712 25.1483Z" fill="#96CCED"/>
<path d="M42.6673 29.0273V32.9345C42.6673 33.506 42.2041 33.9691 41.6318 33.9691H1.36795C0.79565 33.9691 0.33252 33.506 0.33252 32.9345V29.0273H42.6673Z" fill="#5A5A5A"/>
<path d="M42.6672 29.0273V32.9345C42.6672 33.506 42.204 33.9691 41.6317 33.9691H39.9268C40.4982 33.9691 40.9613 33.506 40.9613 32.9345V29.0273H42.6672Z" fill="#444444"/>
<path d="M22.7789 32.1288H20.2202C19.8723 32.1288 19.5903 31.8468 19.5903 31.499C19.5903 31.1511 19.8723 30.8691 20.2202 30.8691H22.7789C23.1268 30.8691 23.4087 31.1511 23.4087 31.499C23.4087 31.8468 23.1268 32.1288 22.7789 32.1288Z" fill="#333333"/>
</g>
<defs>
<clipPath id="clip0_950_3186">
<rect width="43" height="43" fill="white"/>
</clipPath>
</defs>
</svg>
