<svg width="66" height="67" viewBox="0 0 66 67" fill="none" xmlns="http://www.w3.org/2000/svg">
<path d="M9 14.6884C9 11.6484 11.4061 9.18359 14.3737 9.18359H51.99C54.9576 9.18359 57.3637 11.6484 57.3637 14.6884V53.2221C57.3637 56.2621 54.9576 58.7269 51.99 58.7269H14.3737C11.4061 58.7269 9 56.2621 9 53.2221V14.6884Z" fill="#FF41C8"/>
<path d="M13.0303 13.3125V54.5986H53.3334V13.3125H13.0303ZM26.5896 30.7834L29.1609 24.0634H33.5822L29.0951 33.767L33.687 43.6316H29.2133L26.5896 36.7905L23.9793 43.6316H19.5056L24.0975 33.767L19.597 24.0634H24.0182L26.5896 30.7834ZM34.618 35.918C34.618 33.5344 35.0116 31.7564 35.7988 30.5825C36.5861 29.4086 37.7307 28.8223 39.2367 28.8223C40.3289 28.8223 41.2398 29.3067 41.9652 30.2742V22.99H45.704V43.633H42.332L42.1614 42.155C41.401 43.3206 40.4203 43.9027 39.2219 43.9027C37.7361 43.9027 36.6009 43.3206 35.8176 42.155C35.0344 40.9893 34.6341 39.2787 34.6166 37.0217V35.918H34.618ZM38.3447 36.8717C38.3447 38.3057 38.4924 39.3076 38.7907 39.876C39.0889 40.4443 39.5914 40.7292 40.2994 40.7292C41.0342 40.7292 41.589 40.3934 41.9652 39.7218V33.083C41.5985 32.366 41.0463 32.0082 40.3128 32.0082C39.6303 32.0082 39.1319 32.2903 38.8175 32.8546C38.5032 33.4188 38.3447 34.4235 38.3447 35.8657V36.8717Z" fill="#16020B"/>
</svg>
