<svg width="85" height="73" viewBox="0 0 85 73" fill="none" xmlns="http://www.w3.org/2000/svg">
<path d="M84.7461 48C84.7461 51.283 84.0994 54.5339 82.8431 57.5671C81.5867 60.6002 79.7452 63.3562 77.4238 65.6777C75.1023 67.9991 72.3463 69.8406 69.3132 71.097C66.28 72.3534 63.0291 73 59.7461 73C56.463 73 53.2121 72.3534 50.179 71.097C47.1459 69.8406 44.3899 67.9991 42.0684 65.6777C39.747 63.3562 37.9055 60.6002 36.6491 57.5671C35.3927 54.5339 34.7461 51.283 34.7461 48L59.7461 48H84.7461Z" fill="#FCA311"/>
<path d="M47.1111 21.575C45.9444 20.6417 44.5911 20.175 43.0511 20.175C41.5344 20.175 39.5511 20.4783 37.1011 21.085C37.4744 22.3683 37.6611 23.675 37.6611 25.005C37.6611 26.335 37.6261 27.4083 37.5561 28.225C38.5594 28.0383 39.5628 27.945 40.5661 27.945C41.5694 27.945 42.5494 28.1317 43.5061 28.505C43.5061 29.5317 43.2961 30.3367 42.8761 30.92C41.8261 30.5233 40.6128 30.325 39.2361 30.325C38.8394 30.325 38.1978 30.395 37.3111 30.535C36.7744 34.1517 35.7128 37.0333 34.1261 39.18C32.5628 41.3033 30.7194 42.365 28.5961 42.365C27.3128 42.365 26.2744 41.98 25.4811 41.21C24.6878 40.44 24.2911 39.4133 24.2911 38.13C24.2911 36.38 25.0144 34.7233 26.4611 33.16C27.9311 31.5733 29.8561 30.3133 32.2361 29.38C32.3994 28.68 32.4811 27.6533 32.4811 26.3C32.4811 24.9233 32.3528 23.7217 32.0961 22.695C31.5128 22.835 30.8594 22.905 30.1361 22.905C28.7594 22.905 27.6628 22.59 26.8461 21.96C26.0528 21.33 25.6561 20.525 25.6561 19.545C25.6561 18.5417 26.1228 17.725 27.0561 17.095C27.9894 16.465 29.2028 16.15 30.6961 16.15C32.9594 16.15 34.7094 17.025 35.9461 18.775C37.7661 17.795 39.0611 17.1183 39.8311 16.745C41.7211 15.7883 43.2611 15.31 44.4511 15.31C45.6644 15.31 46.6211 15.8583 47.3211 16.955C48.0211 18.0517 48.3711 19.2883 48.3711 20.665C48.2778 20.8517 47.8578 21.155 47.1111 21.575ZM28.0711 39.005C28.9111 39.005 29.6694 38.3283 30.3461 36.975C31.0228 35.6217 31.5244 33.965 31.8511 32.005C30.4278 32.565 29.2261 33.3817 28.2461 34.455C27.2894 35.5283 26.8111 36.5433 26.8111 37.5C26.8111 37.9667 26.9278 38.34 27.1611 38.62C27.3944 38.8767 27.6978 39.005 28.0711 39.005ZM28.2811 19.825C28.2811 20.1983 28.4678 20.49 28.8411 20.7C29.2378 20.8867 29.6694 20.98 30.1361 20.98C30.6028 20.98 31.0228 20.91 31.3961 20.77C30.8128 19.6267 30.0778 19.055 29.1911 19.055C28.5844 19.055 28.2811 19.3117 28.2811 19.825Z" fill="white"/>
<rect x="1.24609" y="0.5" width="66" height="58" rx="11.5" stroke="white"/>
</svg>
